<svg width="147" height="226" viewBox="0 0 147 226" fill="none" xmlns="http://www.w3.org/2000/svg">
<rect width="147" height="226" fill="#FEEED5"/>
<path d="M74.3281 121.41C74.3281 121.762 74.1979 122.068 73.9375 122.328C73.6771 122.589 73.3646 122.719 73 122.719C72.6354 122.719 72.3229 122.589 72.0625 122.328C71.8151 122.068 71.6914 121.762 71.6914 121.41V92.3867C71.6914 92.0352 71.8151 91.7292 72.0625 91.4688C72.3229 91.2083 72.6354 91.0781 73 91.0781C73.3646 91.0781 73.6771 91.2083 73.9375 91.4688C74.1979 91.7292 74.3281 92.0352 74.3281 92.3867V121.41ZM58.4883 108.207C58.1367 108.207 57.8307 108.083 57.5703 107.836C57.3099 107.576 57.1797 107.263 57.1797 106.898C57.1797 106.534 57.3099 106.221 57.5703 105.961C57.8307 105.701 58.1367 105.57 58.4883 105.57H87.4922C87.8568 105.57 88.1693 105.701 88.4297 105.961C88.6901 106.221 88.8203 106.534 88.8203 106.898C88.8203 107.263 88.6901 107.576 88.4297 107.836C88.1693 108.083 87.8568 108.207 87.4922 108.207H58.4883Z" fill="#7D7D7D"/>
</svg>
